<?xml version="1.0" encoding="UTF-8" standalone="no"?>
<!DOCTYPE svg PUBLIC "-//W3C//DTD SVG 1.1//EN"
 "http://www.w3.org/Graphics/SVG/1.1/DTD/svg11.dtd">
<!-- Generated by graphviz version 2.43.0 (0)
 -->
<!-- Title: rmTextCtrl Pages: 1 -->
<svg width="182pt" height="140pt"
 viewBox="0.00 0.00 182.00 140.00" xmlns="http://www.w3.org/2000/svg" xmlns:xlink="http://www.w3.org/1999/xlink">
<g id="graph0" class="graph" transform="scale(1 1) rotate(0) translate(4 136)">
<title>rmTextCtrl</title>
<polygon fill="white" stroke="transparent" points="-4,4 -4,-136 178,-136 178,4 -4,4"/>
<!-- Node1 -->
<g id="node1" class="node">
<title>Node1</title>
<g id="a_node1"><a xlink:title="A text box widget for the control system.">
<polygon fill="#bfbfbf" stroke="black" points="63,-0.5 63,-19.5 131,-19.5 131,-0.5 63,-0.5"/>
<text text-anchor="middle" x="97" y="-7.5" font-family="Helvetica,sans-Serif" font-size="10.00">rmTextCtrl</text>
</a>
</g>
</g>
<!-- Node2 -->
<g id="node2" class="node">
<title>Node2</title>
<g id="a_node2"><a xlink:href="classrmWidget.html" target="_top" xlink:title="The base class of the widgets for robot monitor.">
<polygon fill="white" stroke="black" points="22.5,-56.5 22.5,-75.5 87.5,-75.5 87.5,-56.5 22.5,-56.5"/>
<text text-anchor="middle" x="55" y="-63.5" font-family="Helvetica,sans-Serif" font-size="10.00">rmWidget</text>
</a>
</g>
</g>
<!-- Node2&#45;&gt;Node1 -->
<g id="edge1" class="edge">
<title>Node2&#45;&gt;Node1</title>
<path fill="none" stroke="midnightblue" d="M68.11,-48.14C75.43,-38.74 84.24,-27.4 90.19,-19.75"/>
<polygon fill="midnightblue" stroke="midnightblue" points="65.31,-46.04 61.94,-56.08 70.84,-50.34 65.31,-46.04"/>
</g>
<!-- Node3 -->
<g id="node3" class="node">
<title>Node3</title>
<g id="a_node3"><a xlink:href="classrmAttributeNotifier.html" target="_top" xlink:title="Class that handles the events that triggers upon the change of attribute.">
<polygon fill="white" stroke="black" points="0,-112.5 0,-131.5 110,-131.5 110,-112.5 0,-112.5"/>
<text text-anchor="middle" x="55" y="-119.5" font-family="Helvetica,sans-Serif" font-size="10.00">rmAttributeNotifier</text>
</a>
</g>
</g>
<!-- Node3&#45;&gt;Node2 -->
<g id="edge2" class="edge">
<title>Node3&#45;&gt;Node2</title>
<path fill="none" stroke="midnightblue" d="M55,-101.8C55,-92.91 55,-82.78 55,-75.75"/>
<polygon fill="midnightblue" stroke="midnightblue" points="51.5,-102.08 55,-112.08 58.5,-102.08 51.5,-102.08"/>
</g>
<!-- Node4 -->
<g id="node4" class="node">
<title>Node4</title>
<g id="a_node4"><a xlink:title=" ">
<polygon fill="white" stroke="#bfbfbf" points="106,-56.5 106,-75.5 174,-75.5 174,-56.5 106,-56.5"/>
<text text-anchor="middle" x="140" y="-63.5" font-family="Helvetica,sans-Serif" font-size="10.00">wxTextCtrl</text>
</a>
</g>
</g>
<!-- Node4&#45;&gt;Node1 -->
<g id="edge3" class="edge">
<title>Node4&#45;&gt;Node1</title>
<path fill="none" stroke="midnightblue" d="M126.58,-48.14C119.09,-38.74 110.06,-27.4 103.97,-19.75"/>
<polygon fill="midnightblue" stroke="midnightblue" points="123.93,-50.44 132.9,-56.08 129.41,-46.08 123.93,-50.44"/>
</g>
</g>
</svg>
