<?xml version="1.0" encoding="UTF-8" standalone="no"?>
<!DOCTYPE svg PUBLIC "-//W3C//DTD SVG 1.1//EN"
 "http://www.w3.org/Graphics/SVG/1.1/DTD/svg11.dtd">
<!-- Generated by graphviz version 2.43.0 (0)
 -->
<!-- Title: rmCall Pages: 1 -->
<svg width="348pt" height="84pt"
 viewBox="0.00 0.00 348.00 84.00" xmlns="http://www.w3.org/2000/svg" xmlns:xlink="http://www.w3.org/1999/xlink">
<g id="graph0" class="graph" transform="scale(1 1) rotate(0) translate(4 80)">
<title>rmCall</title>
<polygon fill="white" stroke="transparent" points="-4,4 -4,-80 344,-80 344,4 -4,4"/>
<!-- Node1 -->
<g id="node1" class="node">
<title>Node1</title>
<g id="a_node1"><a xlink:title="Calls that invoke on the client&#39;s request.">
<polygon fill="#bfbfbf" stroke="black" points="149.5,-56.5 149.5,-75.5 198.5,-75.5 198.5,-56.5 149.5,-56.5"/>
<text text-anchor="middle" x="174" y="-63.5" font-family="Helvetica,sans-Serif" font-size="10.00">rmCall</text>
</a>
</g>
</g>
<!-- Node2 -->
<g id="node2" class="node">
<title>Node2</title>
<g id="a_node2"><a xlink:href="classrmBuiltinCallEcho.html" target="_top" xlink:title="The built in call &#39;echo&#39;.">
<polygon fill="white" stroke="black" points="0,-0.5 0,-19.5 104,-19.5 104,-0.5 0,-0.5"/>
<text text-anchor="middle" x="52" y="-7.5" font-family="Helvetica,sans-Serif" font-size="10.00">rmBuiltinCallEcho</text>
</a>
</g>
</g>
<!-- Node1&#45;&gt;Node2 -->
<g id="edge1" class="edge">
<title>Node1&#45;&gt;Node2</title>
<path fill="none" stroke="midnightblue" d="M145.46,-52.37C122.61,-42.26 91.19,-28.35 71.24,-19.52"/>
<polygon fill="midnightblue" stroke="midnightblue" points="144.11,-55.6 154.67,-56.44 146.94,-49.2 144.11,-55.6"/>
</g>
<!-- Node3 -->
<g id="node3" class="node">
<title>Node3</title>
<g id="a_node3"><a xlink:href="classrmBuiltinCallError.html" target="_top" xlink:title="The built in call &#39;error&#39;.">
<polygon fill="white" stroke="black" points="122,-0.5 122,-19.5 226,-19.5 226,-0.5 122,-0.5"/>
<text text-anchor="middle" x="174" y="-7.5" font-family="Helvetica,sans-Serif" font-size="10.00">rmBuiltinCallError</text>
</a>
</g>
</g>
<!-- Node1&#45;&gt;Node3 -->
<g id="edge2" class="edge">
<title>Node1&#45;&gt;Node3</title>
<path fill="none" stroke="midnightblue" d="M174,-45.8C174,-36.91 174,-26.78 174,-19.75"/>
<polygon fill="midnightblue" stroke="midnightblue" points="170.5,-46.08 174,-56.08 177.5,-46.08 170.5,-46.08"/>
</g>
<!-- Node4 -->
<g id="node4" class="node">
<title>Node4</title>
<g id="a_node4"><a xlink:href="classrmBuiltinCallSet.html" target="_top" xlink:title="The built in call &#39;set&#39;.">
<polygon fill="white" stroke="black" points="244,-0.5 244,-19.5 340,-19.5 340,-0.5 244,-0.5"/>
<text text-anchor="middle" x="292" y="-7.5" font-family="Helvetica,sans-Serif" font-size="10.00">rmBuiltinCallSet</text>
</a>
</g>
</g>
<!-- Node1&#45;&gt;Node4 -->
<g id="edge3" class="edge">
<title>Node1&#45;&gt;Node4</title>
<path fill="none" stroke="midnightblue" d="M201.9,-52.23C223.97,-42.13 254.18,-28.31 273.39,-19.52"/>
<polygon fill="midnightblue" stroke="midnightblue" points="200.33,-49.1 192.7,-56.44 203.25,-55.46 200.33,-49.1"/>
</g>
</g>
</svg>
