<?xml version="1.0" encoding="UTF-8" standalone="no"?>
<!DOCTYPE svg PUBLIC "-//W3C//DTD SVG 1.1//EN"
 "http://www.w3.org/Graphics/SVG/1.1/DTD/svg11.dtd">
<!-- Generated by graphviz version 2.43.0 (0)
 -->
<!-- Title: rmWidget Pages: 1 -->
<svg width="591pt" height="140pt"
 viewBox="0.00 0.00 591.00 140.00" xmlns="http://www.w3.org/2000/svg" xmlns:xlink="http://www.w3.org/1999/xlink">
<g id="graph0" class="graph" transform="scale(1 1) rotate(0) translate(4 136)">
<title>rmWidget</title>
<polygon fill="white" stroke="transparent" points="-4,4 -4,-136 587,-136 587,4 -4,4"/>
<!-- Node1 -->
<g id="node1" class="node">
<title>Node1</title>
<g id="a_node1"><a xlink:title="The base class of the widgets for robot monitor.">
<polygon fill="#bfbfbf" stroke="black" points="253.5,-56.5 253.5,-75.5 318.5,-75.5 318.5,-56.5 253.5,-56.5"/>
<text text-anchor="middle" x="286" y="-63.5" font-family="Helvetica,sans-Serif" font-size="10.00">rmWidget</text>
</a>
</g>
</g>
<!-- Node3 -->
<g id="node3" class="node">
<title>Node3</title>
<g id="a_node3"><a xlink:href="classrmButton.html" target="_top" xlink:title="A button widget.">
<polygon fill="white" stroke="black" points="0,-0.5 0,-19.5 62,-19.5 62,-0.5 0,-0.5"/>
<text text-anchor="middle" x="31" y="-7.5" font-family="Helvetica,sans-Serif" font-size="10.00">rmButton</text>
</a>
</g>
</g>
<!-- Node1&#45;&gt;Node3 -->
<g id="edge2" class="edge">
<title>Node1&#45;&gt;Node3</title>
<path fill="none" stroke="midnightblue" d="M243.26,-56.25C199.84,-47.32 130.69,-32.96 71,-20 68.22,-19.4 65.33,-18.76 62.43,-18.12"/>
<polygon fill="midnightblue" stroke="midnightblue" points="242.69,-59.71 253.19,-58.29 244.09,-52.85 242.69,-59.71"/>
</g>
<!-- Node4 -->
<g id="node4" class="node">
<title>Node4</title>
<g id="a_node4"><a xlink:href="classrmCheckBox.html" target="_top" xlink:title="A check box widget for the control system.">
<polygon fill="white" stroke="black" points="80.5,-0.5 80.5,-19.5 159.5,-19.5 159.5,-0.5 80.5,-0.5"/>
<text text-anchor="middle" x="120" y="-7.5" font-family="Helvetica,sans-Serif" font-size="10.00">rmCheckBox</text>
</a>
</g>
</g>
<!-- Node1&#45;&gt;Node4 -->
<g id="edge3" class="edge">
<title>Node1&#45;&gt;Node4</title>
<path fill="none" stroke="midnightblue" d="M250.05,-53.3C218.77,-43.13 174.18,-28.62 146.18,-19.52"/>
<polygon fill="midnightblue" stroke="midnightblue" points="249.1,-56.68 259.7,-56.44 251.27,-50.02 249.1,-56.68"/>
</g>
<!-- Node5 -->
<g id="node5" class="node">
<title>Node5</title>
<g id="a_node5"><a xlink:href="classrmGauge.html" target="_top" xlink:title="A gague to display the real time value of an attribute.">
<polygon fill="white" stroke="black" points="177,-0.5 177,-19.5 239,-19.5 239,-0.5 177,-0.5"/>
<text text-anchor="middle" x="208" y="-7.5" font-family="Helvetica,sans-Serif" font-size="10.00">rmGauge</text>
</a>
</g>
</g>
<!-- Node1&#45;&gt;Node5 -->
<g id="edge4" class="edge">
<title>Node1&#45;&gt;Node5</title>
<path fill="none" stroke="midnightblue" d="M265.23,-50.62C250.98,-40.76 232.54,-27.99 220.5,-19.65"/>
<polygon fill="midnightblue" stroke="midnightblue" points="263.25,-53.51 273.47,-56.32 267.24,-47.75 263.25,-53.51"/>
</g>
<!-- Node6 -->
<g id="node6" class="node">
<title>Node6</title>
<g id="a_node6"><a xlink:href="classrmSlider.html" target="_top" xlink:title="A slider widget for the control system.">
<polygon fill="white" stroke="black" points="257,-0.5 257,-19.5 315,-19.5 315,-0.5 257,-0.5"/>
<text text-anchor="middle" x="286" y="-7.5" font-family="Helvetica,sans-Serif" font-size="10.00">rmSlider</text>
</a>
</g>
</g>
<!-- Node1&#45;&gt;Node6 -->
<g id="edge5" class="edge">
<title>Node1&#45;&gt;Node6</title>
<path fill="none" stroke="midnightblue" d="M286,-45.8C286,-36.91 286,-26.78 286,-19.75"/>
<polygon fill="midnightblue" stroke="midnightblue" points="282.5,-46.08 286,-56.08 289.5,-46.08 282.5,-46.08"/>
</g>
<!-- Node7 -->
<g id="node7" class="node">
<title>Node7</title>
<g id="a_node7"><a xlink:href="classrmSpinCtrl.html" target="_top" xlink:title="A integer box widget for the control system.">
<polygon fill="white" stroke="black" points="333,-0.5 333,-19.5 401,-19.5 401,-0.5 333,-0.5"/>
<text text-anchor="middle" x="367" y="-7.5" font-family="Helvetica,sans-Serif" font-size="10.00">rmSpinCtrl</text>
</a>
</g>
</g>
<!-- Node1&#45;&gt;Node7 -->
<g id="edge6" class="edge">
<title>Node1&#45;&gt;Node7</title>
<path fill="none" stroke="midnightblue" d="M307.57,-50.62C322.36,-40.76 341.51,-27.99 354.02,-19.65"/>
<polygon fill="midnightblue" stroke="midnightblue" points="305.39,-47.86 299.01,-56.32 309.28,-53.69 305.39,-47.86"/>
</g>
<!-- Node8 -->
<g id="node8" class="node">
<title>Node8</title>
<g id="a_node8"><a xlink:href="classrmStaticText.html" target="_top" xlink:title="A label to display the real time status of the client device.">
<polygon fill="white" stroke="black" points="419,-0.5 419,-19.5 497,-19.5 497,-0.5 419,-0.5"/>
<text text-anchor="middle" x="458" y="-7.5" font-family="Helvetica,sans-Serif" font-size="10.00">rmStaticText</text>
</a>
</g>
</g>
<!-- Node1&#45;&gt;Node8 -->
<g id="edge7" class="edge">
<title>Node1&#45;&gt;Node8</title>
<path fill="none" stroke="midnightblue" d="M322.83,-53.44C355.26,-43.26 401.74,-28.66 430.87,-19.52"/>
<polygon fill="midnightblue" stroke="midnightblue" points="321.75,-50.11 313.25,-56.44 323.84,-56.79 321.75,-50.11"/>
</g>
<!-- Node9 -->
<g id="node9" class="node">
<title>Node9</title>
<g id="a_node9"><a xlink:href="classrmTextCtrl.html" target="_top" xlink:title="A text box widget for the control system.">
<polygon fill="white" stroke="black" points="515,-0.5 515,-19.5 583,-19.5 583,-0.5 515,-0.5"/>
<text text-anchor="middle" x="549" y="-7.5" font-family="Helvetica,sans-Serif" font-size="10.00">rmTextCtrl</text>
</a>
</g>
</g>
<!-- Node1&#45;&gt;Node9 -->
<g id="edge8" class="edge">
<title>Node1&#45;&gt;Node9</title>
<path fill="none" stroke="midnightblue" d="M328.66,-56.33C372.99,-47.31 444.37,-32.75 506,-20 508.84,-19.41 511.78,-18.8 514.74,-18.19"/>
<polygon fill="midnightblue" stroke="midnightblue" points="327.91,-52.91 318.81,-58.34 329.31,-59.77 327.91,-52.91"/>
</g>
<!-- Node2 -->
<g id="node2" class="node">
<title>Node2</title>
<g id="a_node2"><a xlink:href="classrmAttributeNotifier.html" target="_top" xlink:title="Class that handles the events that triggers upon the change of attribute.">
<polygon fill="white" stroke="black" points="231,-112.5 231,-131.5 341,-131.5 341,-112.5 231,-112.5"/>
<text text-anchor="middle" x="286" y="-119.5" font-family="Helvetica,sans-Serif" font-size="10.00">rmAttributeNotifier</text>
</a>
</g>
</g>
<!-- Node2&#45;&gt;Node1 -->
<g id="edge1" class="edge">
<title>Node2&#45;&gt;Node1</title>
<path fill="none" stroke="midnightblue" d="M286,-101.8C286,-92.91 286,-82.78 286,-75.75"/>
<polygon fill="midnightblue" stroke="midnightblue" points="282.5,-102.08 286,-112.08 289.5,-102.08 282.5,-102.08"/>
</g>
</g>
</svg>
