<?xml version="1.0" encoding="UTF-8" standalone="no"?>
<!DOCTYPE svg PUBLIC "-//W3C//DTD SVG 1.1//EN"
 "http://www.w3.org/Graphics/SVG/1.1/DTD/svg11.dtd">
<!-- Generated by graphviz version 2.43.0 (0)
 -->
<!-- Title: Graphical Class Hierarchy Pages: 1 -->
<svg width="349pt" height="332pt"
 viewBox="0.00 0.00 349.00 332.00" xmlns="http://www.w3.org/2000/svg" xmlns:xlink="http://www.w3.org/1999/xlink">
<g id="graph0" class="graph" transform="scale(1 1) rotate(0) translate(4 328)">
<title>Graphical Class Hierarchy</title>
<polygon fill="white" stroke="transparent" points="-4,4 -4,-328 345,-328 345,4 -4,4"/>
<!-- Node25 -->
<g id="node1" class="node">
<title>Node25</title>
<g id="a_node1"><a xlink:href="classrmAttributeNotifier.html" target="_top" xlink:title="Class that handles the events that triggers upon the change of attribute.">
<polygon fill="white" stroke="black" points="0,-152.5 0,-171.5 110,-171.5 110,-152.5 0,-152.5"/>
<text text-anchor="middle" x="55" y="-159.5" font-family="Helvetica,sans-Serif" font-size="10.00">rmAttributeNotifier</text>
</a>
</g>
</g>
<!-- Node26 -->
<g id="node2" class="node">
<title>Node26</title>
<g id="a_node2"><a xlink:href="classrmWidget.html" target="_top" xlink:title="The base class of the widgets for robot monitor.">
<polygon fill="white" stroke="black" points="153.5,-152.5 153.5,-171.5 218.5,-171.5 218.5,-152.5 153.5,-152.5"/>
<text text-anchor="middle" x="186" y="-159.5" font-family="Helvetica,sans-Serif" font-size="10.00">rmWidget</text>
</a>
</g>
</g>
<!-- Node25&#45;&gt;Node26 -->
<g id="edge1" class="edge">
<title>Node25&#45;&gt;Node26</title>
<path fill="none" stroke="midnightblue" d="M120.68,-162C131.98,-162 143.27,-162 153.17,-162"/>
<polygon fill="midnightblue" stroke="midnightblue" points="120.33,-158.5 110.33,-162 120.33,-165.5 120.33,-158.5"/>
</g>
<!-- Node15 -->
<g id="node3" class="node">
<title>Node15</title>
<g id="a_node3"><a xlink:href="classrmButton.html" target="_top" xlink:title="A button widget.">
<polygon fill="white" stroke="black" points="270.5,-302.5 270.5,-321.5 332.5,-321.5 332.5,-302.5 270.5,-302.5"/>
<text text-anchor="middle" x="301.5" y="-309.5" font-family="Helvetica,sans-Serif" font-size="10.00">rmButton</text>
</a>
</g>
</g>
<!-- Node26&#45;&gt;Node15 -->
<g id="edge2" class="edge">
<title>Node26&#45;&gt;Node15</title>
<path fill="none" stroke="midnightblue" d="M222.7,-177.68C223.87,-178.72 224.98,-179.83 226,-181 260.02,-220.14 228.48,-252.42 262,-292 265.6,-296.25 270.34,-299.72 275.25,-302.5"/>
<polygon fill="midnightblue" stroke="midnightblue" points="224.36,-174.57 214.17,-171.66 220.33,-180.29 224.36,-174.57"/>
</g>
<!-- Node13 -->
<g id="node4" class="node">
<title>Node13</title>
<g id="a_node4"><a xlink:href="classrmCheckBox.html" target="_top" xlink:title="A check box widget for the control system.">
<polygon fill="white" stroke="black" points="262,-263.5 262,-282.5 341,-282.5 341,-263.5 262,-263.5"/>
<text text-anchor="middle" x="301.5" y="-270.5" font-family="Helvetica,sans-Serif" font-size="10.00">rmCheckBox</text>
</a>
</g>
</g>
<!-- Node26&#45;&gt;Node13 -->
<g id="edge3" class="edge">
<title>Node26&#45;&gt;Node13</title>
<path fill="none" stroke="midnightblue" d="M221.45,-177.09C223.06,-178.31 224.59,-179.61 226,-181 251.22,-205.82 237.36,-226.61 262,-252 266.35,-256.48 271.86,-260.25 277.35,-263.29"/>
<polygon fill="midnightblue" stroke="midnightblue" points="223.21,-174.07 212.9,-171.66 219.46,-179.97 223.21,-174.07"/>
</g>
<!-- Node11 -->
<g id="node5" class="node">
<title>Node11</title>
<g id="a_node5"><a xlink:href="classrmGauge.html" target="_top" xlink:title="A gague to display the real time value of an attribute.">
<polygon fill="white" stroke="black" points="270.5,-223.5 270.5,-242.5 332.5,-242.5 332.5,-223.5 270.5,-223.5"/>
<text text-anchor="middle" x="301.5" y="-230.5" font-family="Helvetica,sans-Serif" font-size="10.00">rmGauge</text>
</a>
</g>
</g>
<!-- Node26&#45;&gt;Node11 -->
<g id="edge4" class="edge">
<title>Node26&#45;&gt;Node11</title>
<path fill="none" stroke="midnightblue" d="M217.84,-176.27C220.64,-177.79 223.4,-179.38 226,-181 243.2,-191.72 245.38,-197.4 262,-209 269.11,-213.96 277.21,-219.09 284.15,-223.32"/>
<polygon fill="midnightblue" stroke="midnightblue" points="219.38,-173.13 208.89,-171.67 216.18,-179.36 219.38,-173.13"/>
</g>
<!-- Node9 -->
<g id="node6" class="node">
<title>Node9</title>
<g id="a_node6"><a xlink:href="classrmSlider.html" target="_top" xlink:title="A slider widget for the control system.">
<polygon fill="white" stroke="black" points="272.5,-180.5 272.5,-199.5 330.5,-199.5 330.5,-180.5 272.5,-180.5"/>
<text text-anchor="middle" x="301.5" y="-187.5" font-family="Helvetica,sans-Serif" font-size="10.00">rmSlider</text>
</a>
</g>
</g>
<!-- Node26&#45;&gt;Node9 -->
<g id="edge5" class="edge">
<title>Node26&#45;&gt;Node9</title>
<path fill="none" stroke="midnightblue" d="M228.4,-172.21C242.94,-175.8 258.93,-179.74 272.15,-183.01"/>
<polygon fill="midnightblue" stroke="midnightblue" points="229.16,-168.8 218.62,-169.8 227.49,-175.59 229.16,-168.8"/>
</g>
<!-- Node7 -->
<g id="node7" class="node">
<title>Node7</title>
<g id="a_node7"><a xlink:href="classrmSpinCtrl.html" target="_top" xlink:title="A integer box widget for the control system.">
<polygon fill="white" stroke="black" points="267.5,-133.5 267.5,-152.5 335.5,-152.5 335.5,-133.5 267.5,-133.5"/>
<text text-anchor="middle" x="301.5" y="-140.5" font-family="Helvetica,sans-Serif" font-size="10.00">rmSpinCtrl</text>
</a>
</g>
</g>
<!-- Node26&#45;&gt;Node7 -->
<g id="edge6" class="edge">
<title>Node26&#45;&gt;Node7</title>
<path fill="none" stroke="midnightblue" d="M228.59,-155.04C241.4,-152.89 255.32,-150.56 267.47,-148.53"/>
<polygon fill="midnightblue" stroke="midnightblue" points="227.9,-151.6 218.62,-156.71 229.06,-158.51 227.9,-151.6"/>
</g>
<!-- Node5 -->
<g id="node8" class="node">
<title>Node5</title>
<g id="a_node8"><a xlink:href="classrmStaticText.html" target="_top" xlink:title="A label to display the real time status of the client device.">
<polygon fill="white" stroke="black" points="262.5,-76.5 262.5,-95.5 340.5,-95.5 340.5,-76.5 262.5,-76.5"/>
<text text-anchor="middle" x="301.5" y="-83.5" font-family="Helvetica,sans-Serif" font-size="10.00">rmStaticText</text>
</a>
</g>
</g>
<!-- Node26&#45;&gt;Node5 -->
<g id="edge7" class="edge">
<title>Node26&#45;&gt;Node5</title>
<path fill="none" stroke="midnightblue" d="M217.62,-147.81C220.5,-146.26 223.33,-144.65 226,-143 249.83,-128.28 275.27,-107.61 289.4,-95.63"/>
<polygon fill="midnightblue" stroke="midnightblue" points="215.77,-144.83 208.46,-152.49 218.96,-151.06 215.77,-144.83"/>
</g>
<!-- Node3 -->
<g id="node9" class="node">
<title>Node3</title>
<g id="a_node9"><a xlink:href="classrmTextCtrl.html" target="_top" xlink:title="A text box widget for the control system.">
<polygon fill="white" stroke="black" points="267.5,-38.5 267.5,-57.5 335.5,-57.5 335.5,-38.5 267.5,-38.5"/>
<text text-anchor="middle" x="301.5" y="-45.5" font-family="Helvetica,sans-Serif" font-size="10.00">rmTextCtrl</text>
</a>
</g>
</g>
<!-- Node26&#45;&gt;Node3 -->
<g id="edge8" class="edge">
<title>Node26&#45;&gt;Node3</title>
<path fill="none" stroke="midnightblue" d="M221.49,-146.95C223.09,-145.72 224.61,-144.41 226,-143 252.28,-116.43 235.78,-93.64 262,-67 265.66,-63.28 270.2,-60.18 274.86,-57.63"/>
<polygon fill="midnightblue" stroke="midnightblue" points="219.5,-144.07 212.98,-152.42 223.28,-149.97 219.5,-144.07"/>
</g>
<!-- Node19 -->
<g id="node10" class="node">
<title>Node19</title>
<g id="a_node10"><a xlink:href="classrmEcho.html" target="_top" xlink:title="To print regular messages for the client object.">
<polygon fill="white" stroke="black" points="159.5,-0.5 159.5,-19.5 212.5,-19.5 212.5,-0.5 159.5,-0.5"/>
<text text-anchor="middle" x="186" y="-7.5" font-family="Helvetica,sans-Serif" font-size="10.00">rmEcho</text>
</a>
</g>
</g>
<!-- Node0 -->
<g id="node11" class="node">
<title>Node0</title>
<g id="a_node11"><a xlink:href="classrmEchoBox.html" target="_top" xlink:title="A text box widget that shows the console output messages.">
<polygon fill="white" stroke="black" points="265.5,-0.5 265.5,-19.5 337.5,-19.5 337.5,-0.5 265.5,-0.5"/>
<text text-anchor="middle" x="301.5" y="-7.5" font-family="Helvetica,sans-Serif" font-size="10.00">rmEchoBox</text>
</a>
</g>
</g>
<!-- Node19&#45;&gt;Node0 -->
<g id="edge9" class="edge">
<title>Node19&#45;&gt;Node0</title>
<path fill="none" stroke="midnightblue" d="M223.13,-10C236.65,-10 251.96,-10 265.38,-10"/>
<polygon fill="midnightblue" stroke="midnightblue" points="222.75,-6.5 212.75,-10 222.75,-13.5 222.75,-6.5"/>
</g>
<!-- Node14 -->
<g id="node12" class="node">
<title>Node14</title>
<g id="a_node12"><a xlink:title=" ">
<polygon fill="white" stroke="#bfbfbf" points="154.5,-304.5 154.5,-323.5 217.5,-323.5 217.5,-304.5 154.5,-304.5"/>
<text text-anchor="middle" x="186" y="-311.5" font-family="Helvetica,sans-Serif" font-size="10.00">wxButton</text>
</a>
</g>
</g>
<!-- Node14&#45;&gt;Node15 -->
<g id="edge10" class="edge">
<title>Node14&#45;&gt;Node15</title>
<path fill="none" stroke="midnightblue" d="M228.03,-313.28C241.94,-313.03 257.22,-312.76 270.15,-312.53"/>
<polygon fill="midnightblue" stroke="midnightblue" points="227.65,-309.78 217.71,-313.46 227.77,-316.78 227.65,-309.78"/>
</g>
<!-- Node12 -->
<g id="node13" class="node">
<title>Node12</title>
<g id="a_node13"><a xlink:title=" ">
<polygon fill="white" stroke="#bfbfbf" points="146,-266.5 146,-285.5 226,-285.5 226,-266.5 146,-266.5"/>
<text text-anchor="middle" x="186" y="-273.5" font-family="Helvetica,sans-Serif" font-size="10.00">wxCheckBox</text>
</a>
</g>
</g>
<!-- Node12&#45;&gt;Node13 -->
<g id="edge11" class="edge">
<title>Node12&#45;&gt;Node13</title>
<path fill="none" stroke="midnightblue" d="M236.29,-274.7C244.81,-274.47 253.56,-274.24 261.75,-274.02"/>
<polygon fill="midnightblue" stroke="midnightblue" points="235.96,-271.2 226.06,-274.97 236.15,-278.2 235.96,-271.2"/>
</g>
<!-- Node10 -->
<g id="node14" class="node">
<title>Node10</title>
<g id="a_node14"><a xlink:title=" ">
<polygon fill="white" stroke="#bfbfbf" points="155,-228.5 155,-247.5 217,-247.5 217,-228.5 155,-228.5"/>
<text text-anchor="middle" x="186" y="-235.5" font-family="Helvetica,sans-Serif" font-size="10.00">wxGauge</text>
</a>
</g>
</g>
<!-- Node10&#45;&gt;Node11 -->
<g id="edge12" class="edge">
<title>Node10&#45;&gt;Node11</title>
<path fill="none" stroke="midnightblue" d="M227.12,-236.23C241.31,-235.61 257.01,-234.92 270.24,-234.33"/>
<polygon fill="midnightblue" stroke="midnightblue" points="226.95,-232.74 217.12,-236.67 227.26,-239.73 226.95,-232.74"/>
</g>
<!-- Node8 -->
<g id="node15" class="node">
<title>Node8</title>
<g id="a_node15"><a xlink:title=" ">
<polygon fill="white" stroke="#bfbfbf" points="156.5,-190.5 156.5,-209.5 215.5,-209.5 215.5,-190.5 156.5,-190.5"/>
<text text-anchor="middle" x="186" y="-197.5" font-family="Helvetica,sans-Serif" font-size="10.00">wxSlider</text>
</a>
</g>
</g>
<!-- Node8&#45;&gt;Node9 -->
<g id="edge13" class="edge">
<title>Node8&#45;&gt;Node9</title>
<path fill="none" stroke="midnightblue" d="M225.82,-196.58C241.07,-195.24 258.23,-193.72 272.26,-192.49"/>
<polygon fill="midnightblue" stroke="midnightblue" points="225.3,-193.11 215.64,-197.48 225.91,-200.09 225.3,-193.11"/>
</g>
<!-- Node6 -->
<g id="node16" class="node">
<title>Node6</title>
<g id="a_node16"><a xlink:title=" ">
<polygon fill="white" stroke="#bfbfbf" points="151.5,-114.5 151.5,-133.5 220.5,-133.5 220.5,-114.5 151.5,-114.5"/>
<text text-anchor="middle" x="186" y="-121.5" font-family="Helvetica,sans-Serif" font-size="10.00">wxSpinCtrl</text>
</a>
</g>
</g>
<!-- Node6&#45;&gt;Node7 -->
<g id="edge14" class="edge">
<title>Node6&#45;&gt;Node7</title>
<path fill="none" stroke="midnightblue" d="M230.74,-131.32C242.95,-133.37 256,-135.55 267.47,-137.47"/>
<polygon fill="midnightblue" stroke="midnightblue" points="231.19,-127.85 220.75,-129.65 230.03,-134.75 231.19,-127.85"/>
</g>
<!-- Node4 -->
<g id="node17" class="node">
<title>Node4</title>
<g id="a_node17"><a xlink:title=" ">
<polygon fill="white" stroke="#bfbfbf" points="146.5,-76.5 146.5,-95.5 225.5,-95.5 225.5,-76.5 146.5,-76.5"/>
<text text-anchor="middle" x="186" y="-83.5" font-family="Helvetica,sans-Serif" font-size="10.00">wxStaticText</text>
</a>
</g>
</g>
<!-- Node4&#45;&gt;Node5 -->
<g id="edge15" class="edge">
<title>Node4&#45;&gt;Node5</title>
<path fill="none" stroke="midnightblue" d="M235.94,-86C244.76,-86 253.85,-86 262.32,-86"/>
<polygon fill="midnightblue" stroke="midnightblue" points="235.74,-82.5 225.74,-86 235.74,-89.5 235.74,-82.5"/>
</g>
<!-- Node1 -->
<g id="node18" class="node">
<title>Node1</title>
<g id="a_node18"><a xlink:title=" ">
<polygon fill="white" stroke="#bfbfbf" points="152,-38.5 152,-57.5 220,-57.5 220,-38.5 152,-38.5"/>
<text text-anchor="middle" x="186" y="-45.5" font-family="Helvetica,sans-Serif" font-size="10.00">wxTextCtrl</text>
</a>
</g>
</g>
<!-- Node1&#45;&gt;Node3 -->
<g id="edge17" class="edge">
<title>Node1&#45;&gt;Node3</title>
<path fill="none" stroke="midnightblue" d="M230.16,-48C242.41,-48 255.55,-48 267.13,-48"/>
<polygon fill="midnightblue" stroke="midnightblue" points="230.13,-44.5 220.13,-48 230.13,-51.5 230.13,-44.5"/>
</g>
<!-- Node1&#45;&gt;Node0 -->
<g id="edge16" class="edge">
<title>Node1&#45;&gt;Node0</title>
<path fill="none" stroke="midnightblue" d="M225.31,-35.17C240.54,-30.08 257.76,-24.31 271.87,-19.59"/>
<polygon fill="midnightblue" stroke="midnightblue" points="224.01,-31.92 215.64,-38.41 226.23,-38.56 224.01,-31.92"/>
</g>
</g>
</svg>
