<?xml version="1.0" encoding="UTF-8" standalone="no"?>
<!DOCTYPE svg PUBLIC "-//W3C//DTD SVG 1.1//EN"
 "http://www.w3.org/Graphics/SVG/1.1/DTD/svg11.dtd">
<!-- Generated by graphviz version 2.43.0 (0)
 -->
<!-- Title: Graphical Class Hierarchy Pages: 1 -->
<svg width="197pt" height="104pt"
 viewBox="0.00 0.00 197.00 104.00" xmlns="http://www.w3.org/2000/svg" xmlns:xlink="http://www.w3.org/1999/xlink">
<g id="graph0" class="graph" transform="scale(1 1) rotate(0) translate(4 100)">
<title>Graphical Class Hierarchy</title>
<polygon fill="white" stroke="transparent" points="-4,4 -4,-100 193,-100 193,4 -4,4"/>
<!-- Node0 -->
<g id="node1" class="node">
<title>Node0</title>
<g id="a_node1"><a xlink:href="classrmCall.html" target="_top" xlink:title="Calls that invoke on the client&#39;s request.">
<polygon fill="white" stroke="black" points="0,-38.5 0,-57.5 49,-57.5 49,-38.5 0,-38.5"/>
<text text-anchor="middle" x="24.5" y="-45.5" font-family="Helvetica,sans-Serif" font-size="10.00">rmCall</text>
</a>
</g>
</g>
<!-- Node1 -->
<g id="node2" class="node">
<title>Node1</title>
<g id="a_node2"><a xlink:href="classrmBuiltinCallEcho.html" target="_top" xlink:title="The built in call &#39;echo&#39;.">
<polygon fill="white" stroke="black" points="85,-76.5 85,-95.5 189,-95.5 189,-76.5 85,-76.5"/>
<text text-anchor="middle" x="137" y="-83.5" font-family="Helvetica,sans-Serif" font-size="10.00">rmBuiltinCallEcho</text>
</a>
</g>
</g>
<!-- Node0&#45;&gt;Node1 -->
<g id="edge1" class="edge">
<title>Node0&#45;&gt;Node1</title>
<path fill="none" stroke="midnightblue" d="M59.03,-59.53C74.7,-64.92 93.14,-71.26 108.04,-76.38"/>
<polygon fill="midnightblue" stroke="midnightblue" points="59.8,-56.09 49.21,-56.15 57.52,-62.71 59.8,-56.09"/>
</g>
<!-- Node2 -->
<g id="node3" class="node">
<title>Node2</title>
<g id="a_node3"><a xlink:href="classrmBuiltinCallError.html" target="_top" xlink:title="The built in call &#39;error&#39;.">
<polygon fill="white" stroke="black" points="85,-38.5 85,-57.5 189,-57.5 189,-38.5 85,-38.5"/>
<text text-anchor="middle" x="137" y="-45.5" font-family="Helvetica,sans-Serif" font-size="10.00">rmBuiltinCallError</text>
</a>
</g>
</g>
<!-- Node0&#45;&gt;Node2 -->
<g id="edge2" class="edge">
<title>Node0&#45;&gt;Node2</title>
<path fill="none" stroke="midnightblue" d="M59.27,-48C67.29,-48 76.02,-48 84.63,-48"/>
<polygon fill="midnightblue" stroke="midnightblue" points="59.21,-44.5 49.21,-48 59.2,-51.5 59.21,-44.5"/>
</g>
<!-- Node3 -->
<g id="node4" class="node">
<title>Node3</title>
<g id="a_node4"><a xlink:href="classrmBuiltinCallSet.html" target="_top" xlink:title="The built in call &#39;set&#39;.">
<polygon fill="white" stroke="black" points="89,-0.5 89,-19.5 185,-19.5 185,-0.5 89,-0.5"/>
<text text-anchor="middle" x="137" y="-7.5" font-family="Helvetica,sans-Serif" font-size="10.00">rmBuiltinCallSet</text>
</a>
</g>
</g>
<!-- Node0&#45;&gt;Node3 -->
<g id="edge3" class="edge">
<title>Node0&#45;&gt;Node3</title>
<path fill="none" stroke="midnightblue" d="M59.03,-36.47C74.7,-31.08 93.14,-24.74 108.04,-19.62"/>
<polygon fill="midnightblue" stroke="midnightblue" points="57.52,-33.29 49.21,-39.85 59.8,-39.91 57.52,-33.29"/>
</g>
</g>
</svg>
